<?xml version="1.0" standalone="no"?>
<!DOCTYPE svg PUBLIC "-//W3C//DTD SVG 1.1//EN" "http://www.w3.org/Graphics/SVG/1.1/DTD/svg11.dtd" >
<!--
2013-9-30: Created.
-->
<svg>
<metadata>
Created by iconfont
</metadata>
<defs>

<font id="iconfont" horiz-adv-x="1024" >
  <font-face
    font-family="iconfont"
    font-weight="500"
    font-stretch="normal"
    units-per-em="1024"
    ascent="896"
    descent="-128"
  />
    <missing-glyph />
    
    <glyph glyph-name="x" unicode="x" horiz-adv-x="1001"
d="M281 543q-27 -1 -53 -1h-83q-18 0 -36.5 -6t-32.5 -18.5t-23 -32t-9 -45.5v-76h912v41q0 16 -0.5 30t-0.5 18q0 13 -5 29t-17 29.5t-31.5 22.5t-49.5 9h-133v-97h-438v97zM955 310v-52q0 -23 0.5 -52t0.5 -58t-10.5 -47.5t-26 -30t-33 -16t-31.5 -4.5q-14 -1 -29.5 -0.5
t-29.5 0.5h-32l-45 128h-439l-44 -128h-29h-34q-20 0 -45 1q-25 0 -41 9.5t-25.5 23t-13.5 29.5t-4 30v167h911zM163 247q-12 0 -21 -8.5t-9 -21.5t9 -21.5t21 -8.5q13 0 22 8.5t9 21.5t-9 21.5t-22 8.5zM316 123q-8 -26 -14 -48q-5 -19 -10.5 -37t-7.5 -25t-3 -15t1 -14.5
t9.5 -10.5t21.5 -4h37h67h81h80h64h36q23 0 34 12t2 38q-5 13 -9.5 30.5t-9.5 34.5q-5 19 -11 39h-368zM336 498v228q0 11 2.5 23t10 21.5t20.5 15.5t34 6h188q31 0 51.5 -14.5t20.5 -52.5v-227h-327z" />
    

    
    <glyph glyph-name="shengchantubiao" unicode="&#58980;" d="M675.416883 410.705358c-3.065825 18.969027-12.279674 27.291576-31.459502 28.873608-9.134031 0.753153-18.438954 0.713244-27.577079-0.050142-61.628616-5.1503-105.275695 71.876004-69.661569 121.252575 5.666046 7.854898 10.339486 16.555048 14.504342 25.323758 3.453658 7.272637 6.511297 15.256472 2.033309 23.344684-13.113669 23.686469-35.316344 34.917254-60.231803 39.4812-21.790282 3.991917-28.636201-15.172561-37.399795-29.950126-4.41352-7.442506-8.631588-15.065114-13.733792-22.023596-9.224082-12.580526-21.324678-21.10569-36.700877-25.218358-42.768059-11.440563-75.348082 3.327792-98.292654 45.049009-20.837584 37.888935-35.150568 41.657772-72.182996 18.916838-4.146437-2.545986-8.251941-5.214768-12.096503-8.188496-17.691941-13.684674-20.61348-27.053146-10.061147-46.681182 6.144954-11.43033 13.639648-22.231327 18.839067-34.056654 19.516496-44.384883-13.166881-100.838639-61.292971-105.892749-13.934361-1.463328-28.102035-0.575098-42.142819-1.205455-13.329587-0.598634-24.840758-5.242398-29.230742-19.035542-6.390547-20.082384-6.39771-40.609906-0.172939-60.720943 3.478218-11.236925 11.806907-18.080797 23.957645-18.810415 7.541767-0.453325 15.132652-0.083911 22.701025-0.083911 26.312272 0.578168 50.612725-3.367701 69.304436-24.762987 27.582195-31.568996 30.148647-62.664202 7.513114-101.320617-24.150026-41.24231-19.875676-55.193043 23.629163-76.584236 4.828982-2.37407 9.881045-4.338818 14.94334-6.182816 14.187117-5.167696 25.803689-0.87902 34.135448 11.039427 6.488785 9.281387 12.291954 19.159362 17.373693 29.288047 26.063609 51.946093 110.654192 51.971675 136.877437 0.325411 5.130857-10.104125 10.707876-20.151969 17.399275-29.255301 11.211343-15.254425 23.316032-17.933441 42.996257-8.004301 20.260439 10.221806 44.868907 17.706267 45.317115 46.908356 0.122797 7.965415-5.034666 15.252379-9.163707 22.295795-5.196349 8.863878-10.858302 17.549701-15.077394 26.874067-19.790742 43.738154 10.17371 99.012038 57.508785 107.282399 15.135722 2.644223 30.273491 0.533143 45.37135 1.584078 19.386536 1.349741 28.640294 9.029654 31.985482 28.114314C677.767418 382.539878 677.668157 396.779184 675.416883 410.705358zM391.845433 276.093521c-63.817468-0.277316-115.043153 50.191122-115.200742 113.49796-0.158612 63.543222 50.671053 114.175389 114.480334 114.036219 63.067384-0.138146 113.295346-50.301639 113.453958-113.308649C504.737596 327.399023 454.370465 276.36572 391.845433 276.093521zM920.236751 185.310911c-0.874927 9.241478-3.640923 18.030655-7.748475 26.333762-5.768377 11.662621-14.499226 16.726963-27.826765 13.065574-11.412934-3.13541-22.432918-8.287757-33.929764-7.732102-36.33658-0.751107-61.509912 35.723619-51.329039 73.263607 7.642051 28.177759 2.854001 37.20025-23.406083 44.099381-26.562982 6.978948-36.385698 0.920976-42.3659-26.120914-0.467651-2.114151-0.943488-4.226255-1.473561-6.325056-10.818393-42.831504-58.991556-57.127092-91.696422-27.201525-5.186116 4.745071-10.210549 9.66922-15.45397 14.347776-7.385201 6.590092-15.47546 6.715959-24.085558 2.446725-30.788214-15.265682-35.232432-40.269146-10.834766-63.358003 14.116509-13.359262 22.892383-28.138874 19.892049-48.714492-4.063549-27.871791-20.485567-42.401716-46.90631-49.059346-26.683732-6.723122-31.375591-16.32378-23.581068-42.507116 7.749498-26.03291 17.146519-31.477922 43.104727-22.911826 22.172999 7.317663 41.832757 7.018857 60.168358-10.129708 19.352767-18.10024 20.706601-38.97364 14.157441-62.494333-2.550079-9.159614-7.512091-19.682271 0.874927-27.697829 12.759605-12.19474 29.109991-16.211217 46.402843-14.08581 15.388479 1.89107 16.182564 15.350616 19.070334 26.782993 0.928139 3.672646 1.747807 7.380084 2.860141 10.997472 11.995195 38.975686 58.007135 52.118008 88.727811 25.287943 5.699816-4.978385 10.790764-10.661827 16.550954-15.564487 7.208169-6.134721 15.243169-7.449669 24.13263-3.202948 31.462572 15.034415 35.890418 40.686654 10.966773 64.278979-0.785899 0.743944-1.609661 1.450025-2.382257 2.206248-31.705096 31.051203-19.589151 79.994915 22.910802 92.557022 5.184069 1.531889 10.334369 3.198855 15.564487 4.554736C916.659273 162.071627 921.519977 171.754151 920.236751 185.310911zM728.744439 64.865725c-42.499953-0.786922-78.599126 35.096333-78.689177 78.218456-0.090051 43.186591 34.540677 77.952396 78.408791 78.711689 42.272779 0.731664 78.418001-35.245735 78.765925-78.399581C807.574832 100.524876 772.752746 65.6813 728.744439 64.865725z"  horiz-adv-x="1024" />

    
    <glyph glyph-name="daiban" unicode="&#58925;" d="M611.06176 451.90016c0 16.97792-13.76256 30.72-30.72 30.72L363.49952 482.62016c-16.95744 0-30.72-13.74208-30.72-30.72s13.76256-30.72 30.72-30.72l216.84224 0C597.2992 421.18016 611.06176 434.92224 611.06176 451.90016zM465.89952 360.39552l-102.4 0c-16.95744 0-30.72-13.74208-30.72-30.72s13.76256-30.72 30.72-30.72l102.4 0c16.95744 0 30.72 13.74208 30.72 30.72S482.85696 360.39552 465.89952 360.39552zM465.89952 247.55072l-102.4 0c-16.95744 0-30.72-13.76256-30.72-30.72 0-16.97792 13.76256-30.72 30.72-30.72l102.4 0c16.95744 0 30.72 13.74208 30.72 30.72C496.61952 233.80864 482.85696 247.55072 465.89952 247.55072zM940.4416 495.85024c-12.00128 12.00128-31.45728 11.9808-43.43808 0l-201.05216-206.66368-62.70976 62.64832c-11.9808 11.9808-31.4368 12.00128-43.43808 0s-11.9808-31.45728 0-43.43808l82.80064-82.88256c6.47168-6.4512 15.07328-9.13408 23.552-8.64256 8.47872-0.49152 17.08032 2.17088 23.552 8.64256L940.4416 452.41216C952.4224 464.41344 952.44288 483.86944 940.4416 495.85024zM702.5664 166.88c-16.0768 0-29.14304-12.3904-30.45376-28.16L671.744 138.72l0-88.08448c0-19.3536-15.70816-35.08224-35.08224-35.08224L306.09408 15.55328c-19.37408 0-35.08224 15.72864-35.08224 35.08224L271.01184 576.23424c0 19.37408 15.70816 35.10272 35.08224 35.10272l330.56768 0c19.37408 0 35.08224-15.72864 35.08224-35.10272l0-155.05408 0.1024 0c0-16.97792 13.76256-30.72 30.72-30.72s30.72 13.74208 30.72 30.72L733.2864 631.81696c0 22.60992-18.35008 40.96-40.96 40.96L250.44992 672.77696c-22.60992 0-40.96-18.35008-40.96-40.96l0-636.7232c0-22.6304 18.35008-40.96 40.96-40.96l441.87648 0c22.60992 0 40.96 18.3296 40.96 40.96l0 143.64672-0.26624 0C731.70944 154.4896 718.6432 166.88 702.5664 166.88z"  horiz-adv-x="1024" />

    
    <glyph glyph-name="shanchu1" unicode="&#58920;" d="M310.4 182.4c5.568-5.568 12.608-8.384 19.584-8.384s14.016 2.816 19.584 8.384L512 344.832l162.368-162.432c5.632-5.568 12.608-8.384 19.648-8.384s14.016 2.816 19.648 8.384c11.2 11.264 11.2 28.032 0 39.232L551.168 384l162.432 162.368c11.2 11.2 11.2 28.032 0 39.232-11.264 11.2-28.032 11.2-39.232 0L512 423.168 349.568 585.6c-11.2 11.2-28.032 11.2-39.168 0-11.2-11.2-11.2-28.032 0-39.232L472.832 384 310.4 221.632C299.2 210.368 299.2 193.6 310.4 182.4L310.4 182.4zM512-64c118.976 0 232.384 46.208 316.352 131.648C912.384 151.616 960 265.024 960 384s-46.208 232.384-131.648 316.416C744.384 785.792 630.976 832 512 832S279.616 785.792 195.584 700.416C110.208 616.384 64 502.976 64 384s46.208-232.384 131.584-316.352C279.616-17.792 393.024-64 512-64L512-64zM234.816 661.184C308.992 735.424 406.976 776 512 776s203.008-40.576 277.184-114.816C863.36 587.008 904 489.024 904 384s-40.64-203.008-114.816-277.184S617.024-8 512-8s-203.008 40.64-277.184 114.816C160.576 180.992 120 278.976 120 384S160.576 587.008 234.816 661.184L234.816 661.184zM234.816 661.184"  horiz-adv-x="1024" />

    
    <glyph glyph-name="gengduo-copy" unicode="&#58933;" d="M495.507 38.564c3.987-3.83 9.395-5.972 15.036-5.972 5.621 0 11.030 2.142 15.016 5.972M525.56 38.564l403.751 386.714c17.759 16.966 16.654 45.28-1.052 62.213-17.673 16.899-46.267 17.039-64.026 0.072l-353.71-338.406-353.673 338.407c-17.774 16.968-46.371 16.827-64.041-0.072-17.706-16.933-18.814-45.247-1.055-62.213l403.754-386.714M495.251 338.596c3.987-3.83 9.395-5.972 15.036-5.972 5.621 0 11.030 2.142 15.016 5.972M525.304 338.596l403.751 386.714c17.759 16.966 16.654 45.28-1.052 62.213-17.673 16.899-46.267 17.039-64.026 0.072l-353.71-338.406-353.673 338.407c-17.774 16.968-46.371 16.827-64.041-0.072-17.706-16.933-18.814-45.247-1.055-62.213l403.754-386.714z"  horiz-adv-x="1024" />

    
    <glyph glyph-name="gongyingshang" unicode="&#58924;" d="M865.238137 239.429347l-444.11489 0 0 489.140363 444.11489 0L865.238137 239.429347zM465.125413 283.431513l356.110557 0 0 401.13603-356.110557 0L465.125413 283.431513zM155.063635 283.431513l710.174502 0 0-44.002167-710.174502 0 0 44.002167ZM777.233803 150.401708l88.004333 0 0-44.002167-88.004333 0 0 44.002167ZM421.123246 150.401708l200.568015 0 0-44.002167-200.568015 0 0 44.002167ZM155.063635 150.401708l88.004333 0 0-44.002167-88.004333 0 0 44.002167ZM199.065801 150.401708 155.063635 150.401708 155.063635 469.407182 247.744477 497.680109 333.341994 633.847371 370.594433 610.429009 276.270161 460.378551 199.065801 436.826136ZM355.718631 8.639007c-58.97416 0-106.952894 47.978734-106.952894 106.952894 0 58.973136 47.978734 106.951871 106.952894 106.951871 58.973136 0 106.951871-47.978734 106.951871-106.951871C462.670501 56.617741 414.691767 8.639007 355.718631 8.639007zM355.718631 183.651996c-37.528732 0-68.061119-30.531364-68.061119-68.060095s30.531364-68.061119 68.061119-68.061119c37.528732 0 68.060095 30.532387 68.060095 68.061119S393.246339 183.651996 355.718631 183.651996zM711.300139 8.639007c-58.973136 0-106.951871 47.978734-106.951871 106.952894 0 58.973136 47.978734 106.951871 106.951871 106.951871 58.97416 0 106.952894-47.978734 106.952894-106.951871C818.252009 56.617741 770.273275 8.639007 711.300139 8.639007zM711.300139 183.651996c-37.528732 0-68.060095-30.531364-68.060095-68.060095s30.531364-68.061119 68.060095-68.061119 68.061119 30.532387 68.061119 68.061119S748.827847 183.651996 711.300139 183.651996zM821.23597 261.942083l44.002167 0 0-111.540376-44.002167 0 0 111.540376ZM332.095607 639.54207l89.027639 0 0-44.002167-89.027639 0 0 44.002167ZM325.793064 435.987025 290.113447 461.738525 354.187765 550.514431 398.61051 550.514431 398.61051 506.512265 376.695385 506.512265Z"  horiz-adv-x="1024" />

    
    <glyph glyph-name="iconfontgongyingshang" unicode="&#58888;" d="M924.291793 775.838341c-0.002844 0.175407-0.01043 0.34797-0.019911 0.479763l-0.031289 0.623881c-0.028444 0.586904-0.064474 1.173807-0.135585 1.755022l-0.0768 0.532859c-0.073007 0.521481-0.177304 1.207941-0.3328 1.921896-0.044563 0.196267-0.09197 0.391585-0.146963 0.598281-0.131793 0.541393-0.290133 1.163378-0.458904 1.680119-0.096711 0.315733-0.209541 0.62957-0.312889 0.901689l-0.090074 0.24083c-0.157393 0.438993-0.320474 0.874193-0.484504 1.248711-0.207644 0.483556-0.442785 0.960474-0.700681 1.46963-0.134637 0.280652-0.270222 0.54803-0.34323 0.678874-0.336593 0.62483-0.68077 1.173807-0.977541 1.633659-0.081541 0.135585-0.177304 0.286341-0.331852 0.517689-0.401067 0.592593-0.8192 1.133037-1.145363 1.545481-0.098607 0.128948-0.201007 0.261689-0.364089 0.459852-0.378311 0.455111-0.788859 0.896948-1.233541 1.364385l-0.258844 0.273067c-0.202904 0.21997-0.411496 0.434252-0.541393 0.555615-0.31763 0.303407-0.651378 0.592593-0.961422 0.851437l-0.212385 0.180148c-0.118519 0.103348-0.236089 0.203852-0.341333 0.289185-0.497778 0.404859-1.010726 0.788859-1.572978 1.178548l-0.417185 0.294874c-0.503467 0.334696-1.046756 0.664652-1.639348 1.000296-0.149807 0.088178-0.301511 0.174459-0.47597 0.268326-0.493037 0.263585-1.018311 0.518637-1.650726 0.802133-0.2304 0.109037-0.458904 0.210489-0.669393 0.295822-0.534756 0.219022-1.071407 0.415289-1.666844 0.616296-0.242726 0.086281-0.478815 0.165926-0.668444 0.221867-0.560356 0.169719-1.128296 0.311941-1.636504 0.428563l-0.081541 0.019911c-0.200059 0.050252-0.402963 0.100504-0.723437 0.167822-0.621037 0.124207-1.226904 0.210489-1.745541 0.277807-0.265481 0.041719-0.530015 0.077748-0.751881 0.098607-0.849541 0.086281-1.717096 0.129896-2.576119 0.129896L275.036919 801.441185c-6.088059 0-12.000711-2.16557-16.652326-6.097541l-149.57037-126.560711c-0.457007-0.388741-0.883674-0.7936-1.253452-1.155793-0.113778-0.106193-0.226607-0.214281-0.3328-0.318578-0.452267-0.452267-0.898844-0.935822-1.328356-1.440237l-0.452267-0.467437-0.243674-0.378311c-0.173511-0.220919-0.351763-0.457007-0.550874-0.731022l-0.540444-0.766104c-0.420978-0.623881-0.827733-1.289481-1.205096-1.974044l-0.174459-0.315733c-0.278756-0.52717-0.547081-1.081837-0.818252-1.694341-0.091022-0.19437-0.174459-0.383052-0.221867-0.502519-0.229452-0.550874-0.430459-1.113126-0.600178-1.613748l-0.077748-0.220919c-0.054993-0.160237-0.11283-0.329956-0.201007-0.612504-0.136533-0.451319-0.252207-0.910222-0.353659-1.339733l-0.052148-0.214281c-0.083437-0.334696-0.163081-0.674133-0.210489-0.930133-0.082489-0.4096-0.145067-0.823941-0.200059-1.225956l-0.031289-0.223763c-0.050252-0.3328-0.095763-0.662756-0.122311-0.935822l-0.049304-0.447526c-0.029393-0.355556-0.042667-0.711111-0.050252-1.009778l-0.007585-0.213333c-0.019911-0.3072-0.032237-0.6144-0.032237-0.926341l0-656.782222c0-14.214637 11.563615-25.7792 25.778252-25.7792l652.603733 0c0.889363 0 1.796741 0.049304 2.803674 0.154548 0.323319 0.035081 0.644741 0.084385 0.948148 0.135585l0.146963 0.023704c0.530015 0.078696 1.057185 0.164978 1.616593 0.286341 0.416237 0.09197 0.822993 0.201007 1.244919 0.31763l0.248415 0.068267c0.362193 0.099556 0.720593 0.2048 0.974696 0.290133 0.512 0.16403 1.007881 0.349867 1.416533 0.511052l1.062874 0.441837c0.59923 0.267378 1.135881 0.529067 1.529363 0.740504 0.263585 0.137481 0.516741 0.278756 0.717748 0.397274 0.455111 0.256948 1.048652 0.603022 1.6384 1.005037 0.144119 0.095763 0.280652 0.191526 0.397274 0.277807 1.659259 1.159585 3.190519 2.531556 4.539733 4.05997l0.105244 0.118519c0.178252 0.201007 0.352711 0.401067 0.524326 0.606815 0.177304 0.200059 0.344178 0.400119 0.482607 0.580267l120.433778 155.86323c3.46643 4.489481 5.376 10.087348 5.376 15.758222L924.291793 775.838341zM838.395259 749.883733l-71.364267-74.989037L522.123378 674.894696l71.365215 74.989037L838.395259 749.883733zM195.858015 674.895644l88.622459 74.989037 237.832533 0-71.364267-74.989037L195.858015 674.895644zM752.3072 623.338193 752.3072 18.10963 151.264711 18.10963 151.264711 623.338193 752.3072 623.338193zM872.738133 711.182222l0-554.193541-68.875378-89.131615L803.862756 638.808178 872.738133 711.182222zM242.120059 317.24563c4.236326 0 8.758993 0.987022 13.827793 3.017956l3.31283 1.327407 2.285985 2.745837c2.208237 2.654815 4.390874 5.445215 6.53843 8.358874l0-195.134578 1.490489-2.983822c6.070993-12.141037 13.848652-18.296415 23.1168-18.296415 9.270044 0 17.048652 6.156326 23.120593 18.302104l1.486696 2.979081L317.299674 274.299259c0.98797-0.694044 2.03283-1.37197 3.132681-2.03283l3.349807-2.00723 98.781867 0-0.059733-0.03603-1.794844-2.870044c-22.301393-35.670281-51.738548-67.356444-87.489422-94.178607l-3.016059-2.261333-1.485748-3.46643c-3.690193-8.603496-7.812741-21.229985-1.048652-31.490844 2.367526-3.588741 8.083911-9.611378 19.772681-9.611378 2.184533 0 4.558696 0.211437 7.053274 0.625778l3.270163 0.542341 2.684207 1.940859c43.471644 31.415941 77.806933 69.455644 102.052978 113.061926l1.778726 3.198104 0 3.657956c0 10.231467-2.670933 16.739556-6.1696 20.886756l62.109393 0c-0.831526-0.733867-1.553067-1.481956-2.16083-2.200652-5.016652-5.926874-6.591526-13.948207-4.816593-24.520059l0.697837-4.165215 2.873837-3.098548c30.004148-32.331852 59.12083-67.272059 86.541274-103.850667l1.657363-2.209185 2.364681-1.419378c6.175289-3.712 11.729541-5.515378 16.980385-5.515378 3.656059 0 21.896533 1.355852 21.896533 28.1088l0 4.382341-2.484148 3.611496c-25.867378 37.631052-55.743526 74.679941-88.797867 110.11603l-0.710163 0.761363 95.791407 0 3.352652 2.016711c10.336711 6.212267 15.579022 13.812622 15.579022 22.591526 0 8.782696-5.241363 16.384-15.578074 22.591526l-3.3536 2.016711-66.792296 0L583.262815 417.238281l52.795733 0 3.352652 2.014815c10.336711 6.21037 15.579022 13.812622 15.579022 22.59437 0 8.778904-5.240415 16.380207-15.577126 22.592474l-3.3536 2.016711-52.796681 0 0 77.291141-2.015763 3.354548c-6.211319 10.335763-13.812622 15.577126-22.593422 15.577126-8.778904 0-16.380207-5.240415-22.591526-15.577126l-2.016711-3.355496 0-77.290193-90.76243 0 0 77.292089-2.016711 3.354548c-6.212267 10.335763-13.81357 15.576178-22.592474 15.576178-8.779852 0-16.381156-5.240415-22.59437-15.577126l-2.015763-3.354548 0-77.291141-49.287585 0-3.347911-2.009126c-7.392711-4.431644-12.1856-9.573452-14.322726-15.348622 10.672356 32.169719 17.912415 63.173215 21.579852 92.48237l0.604919 4.8384-2.510696 4.180385c-6.211319 10.336711-13.812622 15.579022-22.59437 15.579022-8.7808 0-16.382104-5.241363-22.591526-15.576178l-1.590044-2.644385-0.340385-3.067259c-6.712889-60.402726-33.024948-125.405867-78.206104-193.205096l-2.367526-3.554607 0-4.270459C219.092385 324.215467 231.497956 317.24563 242.120059 317.24563zM443.285807 319.473778 443.285807 417.238281l90.76243 0 0-97.763556L443.285807 319.473778zM341.428148 419.246459l3.348859-2.008178 49.286637 0 0-97.763556-70.28243 0-3.349807-2.008178c-1.099852-0.658963-2.144711-1.336889-3.132681-2.031881L317.298726 421.718281c3.366874 8.766578 6.49197 17.461096 9.370548 26.072178-0.567941-1.915259-0.852385-3.896889-0.852385-5.942993C325.816889 433.06003 331.06963 425.455881 341.428148 419.246459z"  horiz-adv-x="1024" />

    
    <glyph glyph-name="kucun" unicode="&#58887;" d="M715.434807 718.428745 540.8557 820.158684c-8.123005 4.732791-18.829857 7.099698-29.537733 7.099698l0 0c0 0 0 0-0.001023 0l0 0 0 0c-10.707876 0-21.414729-2.366907-29.537733-7.099698l-174.578084-101.729939c-16.246009-9.466606-29.537733-32.596396-29.537733-51.399647l0-203.932646c0-18.803251 13.291724-41.933041 29.538757-51.399647l174.578084-101.728916c8.123005-4.733814 18.829857-7.099698 29.537733-7.099698l0 0 0 0c0.001023 0 0.001023 0 0.001023 0l0 0c10.707876 0 21.414729 2.366907 29.537733 7.099698l174.578084 101.728916c16.246009 9.466606 29.537733 32.596396 29.537733 51.399647L744.972541 667.029098C744.971517 685.83235 731.679793 708.96214 715.434807 718.428745zM369.973798 690.607096l111.805412 65.150836c8.123005 4.732791 18.830881 7.099698 29.537733 7.099698 10.707876 0 21.415752-2.366907 29.538757-7.099698l111.805412-65.150836c6.344498-4.476965 5.915733-11.123338-1.267876-15.211447l-19.003819-10.810207-0.083911-0.032746-1.077541-0.62831-1.677199-0.953721c0.010233-0.001023 0.021489-0.002047 0.031722-0.004093l-91.270726-53.185316c-7.424086-4.326539-17.20894-6.488785-26.994818-6.488785-9.784854 0-19.570731 2.162246-26.993794 6.488785l-91.27175 53.185316c0.010233 0.001023 0.021489 0.002047 0.032746 0.004093l-1.676176 0.953721-1.078565 0.62831-0.083911 0.032746-19.003819 10.810207C364.057041 679.484781 363.629299 686.130132 369.973798 690.607096zM486.076072 409.362644l-0.367367-21.674649c-0.132006-7.68196-5.000897-11.30651-11.285021-9.03477l-111.964024 65.242933c-16.246009 9.466606-29.538757 32.596396-29.538757 51.399647L332.920904 608.617757l0.249687 14.715143c0.135076 7.851828 5.220908 11.449773 11.7056 8.860808l21.092387-12.277628 4.991688-2.961448c-0.008186 0.023536-0.01842 0.047072-0.025583 0.070608l84.142375-48.976458 18.566868-11.256368c6.578836-3.989871 11.998265-13.323447 12.432147-21.158902L486.076072 409.362644zM689.714006 495.295805c0-18.803251-13.292748-41.933041-29.538757-51.399647l-111.964024-65.242933c-6.285147-2.27174-11.153014 1.351787-11.285021 9.03477l-0.366344 21.674649L536.55986 535.634536c0.433882 7.835456 5.853311 17.168008 12.432147 21.158902l18.565844 11.256368 84.143399 48.976458c-0.008186-0.023536-0.01842-0.047072-0.025583-0.070608l4.992711 2.961448 21.091364 12.277628c6.485715 2.588965 11.571546-1.00898 11.7056-8.860808l0.249687-14.715143L689.715029 495.295805zM508.726955 358.22394l-174.579107 101.729939c-8.123005 4.732791-18.829857 7.099698-29.537733 7.099698l0 0c0 0 0 0-0.001023 0l0 0 0 0c-10.707876 0-21.414729-2.366907-29.537733-7.099698l-174.578084-101.729939c-16.246009-9.465582-29.537733-32.596396-29.537733-51.399647l0-203.932646c0-18.803251 13.291724-41.933041 29.538757-51.399647l174.578084-101.727892c8.123005-4.733814 18.829857-7.099698 29.537733-7.099698l0 0 0 0c0.001023 0 0.001023 0 0.001023 0l0 0c10.707876 0 21.414729 2.366907 29.537733 7.099698l174.578084 101.727892c16.246009 9.467629 29.537733 32.596396 29.537733 51.399647L538.264689 306.825316C538.263665 325.628568 524.971941 348.758358 508.726955 358.22394zM163.265946 330.403315l111.805412 65.150836c8.123005 4.732791 18.830881 7.099698 29.537733 7.099698 10.707876 0 21.415752-2.366907 29.538757-7.099698l111.805412-65.150836c6.344498-4.476965 5.915733-11.122315-1.267876-15.211447l-19.003819-10.810207-0.083911-0.031722-1.077541-0.62831-1.677199-0.953721c0.010233-0.001023 0.021489-0.00307 0.031722-0.004093l-91.270726-53.185316c-7.424086-4.326539-17.20894-6.488785-26.994818-6.488785-9.784854 0-19.570731 2.162246-26.993794 6.488785l-91.27175 53.185316c0.010233 0.001023 0.021489 0.00307 0.032746 0.004093l-1.676176 0.953721-1.078565 0.62831-0.083911 0.031722-19.003819 10.810207C157.349189 319.280999 156.921447 325.92635 163.265946 330.403315zM279.36822 49.158862l-0.367367-21.674649c-0.132006-7.682983-5.000897-11.30651-11.285021-9.03477l-111.964024 65.242933c-16.246009 9.466606-29.538757 32.596396-29.538757 51.399647L126.213052 248.413975l0.249687 14.715143c0.135076 7.851828 5.220908 11.449773 11.7056 8.860808l21.092387-12.276604 4.991688-2.962471c-0.008186 0.023536-0.01842 0.048095-0.025583 0.070608l84.142375-48.975435 18.566868-11.257391c6.578836-3.989871 11.998265-13.323447 12.432147-21.158902L279.36822 49.158862zM483.006154 135.092024c0-18.802228-13.292748-41.933041-29.538757-51.399647l-111.964024-65.242933c-6.285147-2.27174-11.153014 1.351787-11.285021 9.03477l-0.366344 21.674649L329.852008 175.430754c0.433882 7.835456 5.853311 17.168008 12.432147 21.158902l18.565844 11.257391 84.143399 48.975435c-0.008186-0.022513-0.01842-0.047072-0.025583-0.070608l4.992711 2.962471 21.091364 12.276604c6.485715 2.588965 11.571546-1.00898 11.7056-8.860808l0.249687-14.715143L483.007177 135.092024zM920.948461 358.393809l-174.579107 101.729939c-8.123005 4.732791-18.829857 7.099698-29.537733 7.099698l0 0c0 0 0 0-0.001023 0l0 0 0 0c-10.707876 0-21.414729-2.366907-29.537733-7.099698l-174.578084-101.729939c-16.246009-9.465582-29.538757-32.596396-29.538757-51.399647l0-203.932646c0-18.803251 13.291724-41.933041 29.538757-51.399647l174.578084-101.727892c8.123005-4.733814 18.829857-7.099698 29.537733-7.099698l0 0 0 0c0.001023 0 0.001023 0 0.001023 0l0 0c10.707876 0 21.414729 2.366907 29.537733 7.099698l174.578084 101.727892c16.246009 9.467629 29.537733 32.596396 29.537733 51.399647L950.485171 306.995185C950.485171 325.798437 937.193447 348.928227 920.948461 358.393809zM575.487452 330.573183l111.805412 65.150836c8.123005 4.732791 18.830881 7.099698 29.537733 7.099698 10.707876 0 21.415752-2.366907 29.538757-7.099698l111.805412-65.150836c6.344498-4.476965 5.915733-11.122315-1.267876-15.211447l-19.003819-10.810207-0.083911-0.031722-1.077541-0.62831-1.677199-0.953721c0.010233-0.001023 0.021489-0.00307 0.031722-0.004093L743.825414 249.748367c-7.424086-4.326539-17.20894-6.488785-26.994818-6.488785-9.784854 0-19.570731 2.162246-26.993794 6.488785l-91.27175 53.185316c0.011256 0.001023 0.021489 0.00307 0.032746 0.004093l-1.676176 0.953721-1.079588 0.62831-0.082888 0.031722-19.003819 10.810207C569.570695 319.450868 569.142953 326.096219 575.487452 330.573183zM691.589726 49.328731l-0.367367-21.674649c-0.132006-7.682983-5.000897-11.30651-11.283997-9.03477l-111.964024 65.242933c-16.247033 9.466606-29.537733 32.596396-29.537733 51.399647L538.436604 248.583844l0.248663 14.715143c0.135076 7.851828 5.221932 11.449773 11.7056 8.860808l21.092387-12.276604 4.991688-2.962471c-0.00921 0.023536-0.01842 0.048095-0.025583 0.070608l84.142375-48.975435 18.567891-11.257391c6.578836-3.989871 11.998265-13.323447 12.431124-21.158902L691.590749 49.328731zM895.22766 135.261892c0-18.802228-13.292748-41.933041-29.538757-51.399647l-111.964024-65.242933c-6.285147-2.27174-11.153014 1.351787-11.285021 9.03477l-0.366344 21.674649L742.073514 175.600623c0.433882 7.835456 5.853311 17.168008 12.432147 21.158902l18.565844 11.257391 84.143399 48.975435c-0.008186-0.022513-0.01842-0.047072-0.025583-0.070608l4.992711 2.962471 21.091364 12.276604c6.485715 2.588965 11.571546-1.00898 11.7056-8.860808l0.249687-14.715143L895.228683 135.261892z"  horiz-adv-x="1024" />

    
    <glyph glyph-name="yuangong" unicode="&#59686;" d="M326.925353 285.806607c22.88215 4.491291 44.300972 8.980535 61.358463 14.926968 7.036253 2.486634 12.015661 4.731768 15.474436 6.736425-17.844413 19.539009-32.651654 43.208081-44.12087 69.729108-13.899568 32.893154-21.48329 68.216661-21.970384 102.56291-0.546446 45.457308 2.305509 80.050174 8.195659 109.422132 8.615215 42.23594 24.39562 74.4005 48.366567 98.616018 7.950066 8.250918 16.871249 15.172561 26.339902 21.118993-13.352099 47.337121-42.605354 78.650291-104.686271 78.650291-102.626355 0-117.067252-81.503269-116.094088-179.393763 0.545422-49.884131 23.181979-101.833293 56.374962-131.387399 3.3984-2.972705 5.28333-7.344269 5.28333-11.955286 0-12.076036-0.791016-27.79402-5.037736-33.378202-23.003923-31.380708-80.758302-37.099966-133.099391-48.65514-10.214642-2.255367-29.727045-20.446681-29.727045-41.244356 0 0 0-134.032646 0-151.986553 0-17.954931 14.183024-28.172643 25.382087-28.172643 11.199063 0 23.230074 0 23.230074 0 6.795776 18.931165 14.866592 34.590819 23.968901 47.758724C202.395128 260.80212 268.606109 273.971048 326.925353 285.806607zM900.688022 382.800685c-52.339042 11.555174-110.095467 17.274432-133.099391 48.65514-4.244674 5.584182-5.036713 21.302165-5.036713 33.378202 0 4.611018 1.88493 8.981559 5.282307 11.955286 33.194006 29.553083 55.831586 81.502245 56.375985 131.387399 0.974188 97.889471-13.468756 179.393763-116.094088 179.393763-62.079894 0-91.333148-31.31317-104.686271-78.650291 9.467629-5.946432 18.389836-12.868075 26.338878-21.118993 23.970948-24.215518 39.751353-56.380078 48.367591-98.616018 5.889127-29.372981 8.742105-63.964824 8.194636-109.422132-0.485047-34.346249-8.069793-69.669756-21.968337-102.56291-11.470239-26.521027-26.27748-50.190099-44.121893-69.729108 3.458775-2.004657 8.43716-4.249791 15.474436-6.736425 17.058514-5.946432 38.477336-10.435677 61.359486-14.926968 58.319244-11.834536 124.529201-25.004487 160.761404-76.651774 9.102309-13.167904 17.171078-28.827559 23.968901-47.758724 0 0 12.031011 0 23.229051 0 11.199063 0 25.38311 10.217712 25.38311 28.172643 0 17.953907 0 151.986553 0 151.986553C930.41609 362.354004 910.903687 380.545318 900.688022 382.800685zM577.148277 282.715199c-4.671393 6.67605-5.519714 24.580838-5.218862 38.054711 0.060375 4.731768 2.366907 9.769504 5.949502 13.048177 37.077453 33.317827 62.204737 91.698468 62.204737 148.866493 0 109.23896-16.812921 199.478194-127.202077 199.478194-113.848954 0-129.87086-91.212398-128.782062-201.057155 0.546446-56.134485 25.554002-114.154923 62.631456-147.287531 3.764744-3.523243 5.89015-8.376785 5.89015-13.471826 0-13.534248-0.791016-31.074739-5.709025-37.565571-43.208081-59.474556-197.473537-36.597523-244.205884-103.112426-30.766724-43.995003-39.382962-139.519614-41.753963-180.300412-0.546446-10.255575 7.588839-18.937305 17.904789-18.937305l666.228617 0c10.1952 0 18.445094 8.623401 17.965164 18.937305-2.185782 40.842197-10.561543 137.212058-42.907229 180.240037C770.561335 244.545878 620.906897 223.242689 577.148277 282.715199z"  horiz-adv-x="1024" />

    
    <glyph glyph-name="fahuo" unicode="&#58975;" d="M4.283663 205.639309l0-130.863558c0-31.225238 25.41954-56.644778 56.644778-56.644778l44.091918 0c4.079679-49.348428 45.504115-88.262292 95.872463-88.262292 50.446803 0 91.871239 38.913864 95.950918 88.262292L430.845514 18.130973c4.079679-49.348428 45.504115-88.262292 95.872463-88.262292 50.368348 0 91.792784 38.913864 95.872463 88.262292l54.683393 0c31.225238 0 56.644778 25.41954 56.644778 56.644778L733.91861 159.272185l8.551635 0c31.225238 0 56.644778 25.41954 56.644778 56.644778L799.115023 509.967692c0 31.225238-25.41954 56.644778-56.644778 56.644778L343.053954 566.61247c-31.225238 0-56.644778-25.41954-56.644778-56.644778l0-64.254949-78.063094 0c-26.674826 0-61.430555-15.691074-79.083014-35.618738L35.038169 303.394701C17.856442 283.859314 6.794235 268.482061 4.283663 205.639309zM343.132409 192.458807c-12.866681 0-23.3797 10.51302-23.3797 23.3797l0 294.050729c0 12.945136 10.51302 23.3797 23.3797 23.3797l399.337837 0c12.945136 0 23.3797-10.51302 23.3797-23.3797l0-294.050729c0-12.866681-10.51302-23.3797-23.3797-23.3797L343.132409 192.458807zM463.639858 25.97651c0 34.677274 28.243933 62.842752 62.921207 62.842752 34.677274 0 62.842752-28.165478 62.842752-62.842752s-28.165478-62.921207-62.842752-62.921207C491.962247-36.944697 463.718314-8.700763 463.639858 25.97651zM138.128526 25.97651c0 34.677274 28.165478 62.842752 62.842752 62.842752 34.677274 0 62.921207-28.165478 62.921207-62.842752s-28.243933-62.921207-62.921207-62.921207S138.05007-8.700763 138.128526 25.97651zM50.572332 271.149544l103.718 116.898502c11.454484 12.945136 36.795569 24.321165 54.05575 24.321165l78.063094 0 0-196.609159c0-31.225238 25.41954-56.644778 56.644778-56.644778l357.442669 0 0-84.417979c0-12.866681-10.51302-23.3797-23.3797-23.3797l-57.664697 0c-11.062207 40.875248-48.485419 71.00211-92.812703 71.00211S444.96748 92.114388 433.826818 51.23914L293.783981 51.23914c-11.140663 40.875248-48.563874 71.00211-92.891159 71.00211-44.248829 0-81.672041-30.205318-92.812703-71.00211l-47.073222 0c-12.866681 0-23.3797 10.51302-23.3797 23.3797L37.627196 173.551063C37.078008 237.256824 41.706875 259.224327 50.572332 271.149544zM111.139878 268.952793c-4.158135-7.139439-7.296349-18.750834-7.296349-27.067103l0-58.13543c0-12.70977 10.199198-22.908968 22.830513-22.908968L226.076996 160.841293c12.70977 0 22.908968 10.277654 22.908968 22.908968L248.985964 346.858976c0 12.631315-10.277654 22.908968-22.908968 22.908968l-38.286221 0c-10.434564 0-21.810593-6.590251-27.067103-15.612619L111.139878 268.952793zM126.674041 241.964146c0 4.23659 2.03984 11.846761 4.158135 15.612619L180.494426 342.700842c1.098375 1.882929 5.021144 4.158135 7.296349 4.158135L226.076996 346.858976l0-163.03026L126.752497 183.828716 126.674041 241.964146z"  horiz-adv-x="1129" />

    
    <glyph glyph-name="jian" unicode="&#58943;" d="M511.999488 702.393537c43.011606 0 84.702124-8.40953 123.914194-24.994254 37.907355-16.033162 71.964008-38.999223 101.225449-68.260663s52.227502-63.318094 68.25964-101.224426c16.585747-39.21207 24.995277-80.903611 24.995277-123.914194 0-43.011606-8.40953-84.702124-24.995277-123.914194-16.032138-37.907355-38.998199-71.964008-68.25964-101.225449s-63.318094-52.227502-101.225449-68.25964c-39.211047-16.585747-80.902588-24.995277-123.914194-24.995277-43.011606 0-84.702124 8.40953-123.914194 24.995277-37.906332 16.032138-71.964008 38.998199-101.225449 68.25964-29.261441 29.261441-52.227502 63.318094-68.260663 101.225449-16.585747 39.211047-24.994254 80.902588-24.994254 123.914194 0 43.011606 8.40953 84.702124 24.994254 123.914194 16.033162 37.906332 38.999223 71.964008 68.260663 101.224426 29.261441 29.261441 63.318094 52.227502 101.225449 68.260663C427.297364 693.98503 468.987882 702.393537 511.999488 702.393537M511.999488 766.209982c-211.089649 0-382.209982-171.120332-382.209982-382.209982s171.120332-382.209982 382.209982-382.209982c211.089649 0 382.209982 171.120332 382.209982 382.209982S723.089138 766.209982 511.999488 766.209982L511.999488 766.209982zM574.592059 415.296797 574.592059 609.037313 511.999488 609.037313 511.999488 415.296797 511.999488 352.704227 574.592059 352.704227 768.332575 352.704227 768.332575 415.296797Z"  horiz-adv-x="1024" />

    
    <glyph glyph-name="bangonghaocai" unicode="&#58894;" d="M398.222222 270.222222l227.555556 0 0-56.888889-227.555556 0 0 56.888889ZM398.222222 156.444444l227.555556 0 0-56.888889-227.555556 0 0 56.888889ZM910.222222 611.555556l-170.666667 0L739.555556 782.222222c0 34.133333-28.444444 56.888889-56.888889 56.888889L341.333333 839.111111C312.888889 839.111111 284.444444 810.666667 284.444444 782.222222l0-170.666667L113.777778 611.555556C85.333333 611.555556 56.888889 583.111111 56.888889 548.977778l0-341.333333C56.888889 179.2 85.333333 156.444444 113.777778 156.444444l170.666667 0 0-113.777778c0-34.133333 28.444444-56.888889 56.888889-56.888889L682.666667-14.222222c34.133333 0 56.888889 28.444444 56.888889 56.888889l0 113.777778 170.666667 0c28.444444 0 56.888889 22.755556 56.888889 51.2l0 341.333333C967.111111 583.111111 938.666667 611.555556 910.222222 611.555556zM341.333333 782.222222l341.333333 0 0-170.666667L341.333333 611.555556 341.333333 782.222222zM341.333333 42.666667l0 284.444444 341.333333 0 0-284.444444L341.333333 42.666667zM910.222222 213.333333l-170.666667 0 0 113.777778 28.444444 0c17.066667 0 28.444444 11.377778 28.444444 28.444444S785.066667 384 768 384L739.555556 384l-56.888889 0L341.333333 384 284.444444 384 256 384C238.933333 384 227.555556 372.622222 227.555556 355.555556S238.933333 327.111111 256 327.111111L284.444444 327.111111l0-113.777778L113.777778 213.333333 113.777778 554.666667l796.444444 0L910.222222 213.333333z"  horiz-adv-x="1024" />

    
    <glyph glyph-name="tupian1" unicode="&#58910;" d="M868.787474 751.029234 156.414911 751.029234c-45.421492 0-82.213443-36.789904-82.213443-82.179674l0-547.980469c0-45.38977 36.791951-82.214467 82.213443-82.214467l712.372563 0c45.38977 0 82.214467 36.823674 82.214467 82.214467l0.002047 547.980469C950.970218 714.237283 914.145521 751.029234 868.787474 751.029234L868.787474 751.029234 868.787474 751.029234zM882.480334 204.73415 710.498378 434.043766c0 0-9.984399 18.546402-45.085848 18.546402-39.828101 0-51.797713-17.97335-51.797713-17.97335L462.980052 202.105277c0 0-8.193613-15.58086-28.293393-15.58086-21.041222 0-31.091112 15.58086-31.091112 15.58086l-79.212086 90.541109c0 0-20.300348 26.876114-46.670949 26.876114-26.27134 0-48.085158-29.740348-48.085158-29.740348l-86.936001-108.315938L142.691351 654.145673c0 15.106046 12.274558 27.414373 27.41642 27.414373l684.991959 0c15.141862 0 27.412326-12.30628 27.412326-27.414373l0-449.411523L882.480334 204.73415 882.480334 204.73415 882.480334 204.73415zM471.410048 504.42165c0-53.617152-43.431162-97.051383-97.015567-97.051383-53.584406 0-97.051383 43.468001-97.051383 97.051383 0 53.549613 43.468001 97.017614 97.051383 97.017614C427.978886 601.405495 471.410048 557.969217 471.410048 504.42165L471.410048 504.42165 471.410048 504.42165z"  horiz-adv-x="1024" />

    
    <glyph glyph-name="jinzhiban1000" unicode="&#58964;" d="M747.52 425.984 276.48 425.984C265.216 425.984 256 416.768 256 405.504L256.002048 362.496C256.002048 351.232 265.218048 342.016 276.482048 342.016L747.52 342.016C758.784 342.016 768 351.232 768 362.496L768 405.504C768 416.768 758.784 425.984 747.52 425.984M512 17.408C303.88224 17.408 135.168 186.12224 135.168 394.24 135.168 602.358784 303.88224 771.072 512 771.072 720.11776 771.072 888.832 602.358784 888.832 394.24 888.832 186.12224 720.11776 17.408 512 17.408M512 855.04C257.506304 855.04 51.2 648.732672 51.2 394.24 51.2 139.747328 257.506304-66.56 512-66.56 766.491648-66.56 972.8 139.747328 972.8 394.24 972.8 648.732672 766.491648 855.04 512 855.04"  horiz-adv-x="1024" />

    
    <glyph glyph-name="shanchu" unicode="&#59243;" d="M907.953 682.032H116.05c-14.125 0-25.544 11.418-25.544 25.543 0 14.104 11.419 25.549 25.544 25.549h791.903c14.125 0 25.543-11.445 25.543-25.549 0-14.125-11.418-25.543-25.543-25.543zM652.497 784.21H371.504c-14.125 0-25.548 11.419-25.548 25.549 0 14.098 11.423 25.544 25.548 25.544h280.993c14.13 0 25.55-11.447 25.55-25.544 0-14.131-11.418-25.549-25.55-25.549z m-255.45-664.169V554.305c0 14.103 11.418 25.549 25.544 25.549 14.13 0 25.548-11.446 25.548-25.55v-434.263c0-14.13-11.417-25.549-25.548-25.549-14.125 0-25.544 11.418-25.544 25.55z m178.816 0V554.305c0 14.103 11.422 25.549 25.549 25.549 14.125 0 25.543-11.446 25.543-25.55v-434.263c0-14.13-11.418-25.549-25.543-25.549-14.127 0-25.55 11.418-25.55 25.55z m-357.63 485.356c14.127 0 25.544-11.447 25.544-25.543v-536.448c0-28.202 22.89-51.094 51.092-51.094h434.264c28.201 0 51.092 22.892 51.092 51.094V579.854c0 14.097 11.417 25.543 25.544 25.543 14.13 0 25.549-11.447 25.549-25.543v-561.998c0-42.328-34.31-76.637-76.636-76.637H269.32c-42.327 0-76.636 34.31-76.636 76.637V579.853c0 14.097 11.423 25.544 25.548 25.544z"  horiz-adv-x="1024" />

    
    <glyph glyph-name="tongji" unicode="&#59064;" d="M512.697383 66.877409c-162.339342 0-293.932426 131.606387-293.932426 293.933449 0 162.323992 131.594107 293.933449 293.932426 293.933449 162.326039 0 293.932426-131.608433 293.932426-293.933449 0-162.327062-131.60741-293.933449-293.932426-293.933449zM273.877159 360.810858c0-131.903146 106.917078-238.820224 238.819201-238.820224s238.819201 106.916055 238.8192 238.820224h-238.8192V599.631082c-131.902122 0-238.819201-106.917078-238.819201-238.820224z"  horiz-adv-x="1024" />

    
    <glyph glyph-name="mulu" unicode="&#58885;" d="M121.91 586.305h47.123c16.521 0 29.91 15.113 29.91 42.984 0 27.888-13.373 41.503-29.91 41.503h-47.123c-16.522 0-29.91-13.616-29.91-41.504 0-27.872 13.373-42.983 29.91-42.983zM337.51 586.305h556.228c21.153 0 38.262 15.113 38.262 42.984 0 27.888-17.127 41.503-38.262 41.503h-556.228c-21.136 0-38.262-13.615-38.262-41.503-0.001-27.873 17.109-42.984 38.262-42.984zM170.884 369.842h-49.682c-15.51 0-28.074-16.659-28.074-41.302 0-24.695 12.563-43.857 28.074-43.857h49.682c15.51 0 32.249 19.18 32.249 43.857 0.001 24.628-16.739 41.302-32.249 41.302zM893.738 369.842h-556.228c-21.136 0-38.262-16.659-38.262-41.302 0-24.695 17.127-43.857 38.262-43.857h556.228c21.153 0 38.262 19.18 38.262 43.857 0 24.628-17.11 41.302-38.262 41.302zM171.809 101.283h-47.846c-15.006 0-27.148-16.742-27.148-41.369 0-24.626 12.143-45.371 27.148-45.371h47.845c15.007 0 31.309 20.743 31.309 45.371 0 24.627-16.302 41.369-31.308 41.369zM893.738 101.283h-556.228c-21.136 0-38.262-16.742-38.262-41.369 0-24.626 17.127-44.193 38.262-44.193h556.228c21.153 0 38.262 19.566 38.262 44.193s-17.11 41.369-38.262 41.369z"  horiz-adv-x="1024" />

    
    <glyph glyph-name="zanwuhuodong" unicode="&#58896;" d="M923.900928 890.969088c-5.238784 3.382272-24.076288 12.786688-46.480384-8.29952-2.818048-2.644992-5.584896-5.276672-8.326144-7.882752-58.384384-55.471104-96.955392-92.122112-311.165952-20.064256-57.644032 19.390464-116.237312 28.043264-174.148608 25.72288-46.385152-1.857536-92.378112-10.727424-136.687616-26.359808-75.712512-26.703872-120.50944-64.008192-122.37824-65.580032a26.499072 26.499072 0 0 1-4.314112-4.621312c-10.959872-6.81984-15.5136-20.837376-10.135552-32.975872l331.611136-749.236224c5.880832-13.293568 21.420032-19.295232 34.709504-13.415424 13.287424 5.881856 19.294208 21.42208 13.412352 34.709504l-153.69216 347.25888c0.848896 1.616896 1.705984 3.25632 2.581504 4.921344 34.864128 66.60608 74.384384 142.092288 277.424128 124.084224 37.019648-3.283968 73.229312 2.791424 107.731968 18.064384 2.14016 0.943104 4.278272 1.929216 6.40512 2.947072 31.296512 14.976 61.110272 37.622784 88.605696 67.298304 43.0336 46.440448 80.95744 111.62624 104.04864 178.843648 8.793088 25.597952 14.633984 49.308672 16.896 68.573184 2.132992 18.207744 2.786304 43.821056-16.09728 56.011776z m-56.108032-122.724352c-19.661824-51.324928-47.996928-99.807232-79.793152-136.508416-50.664448-58.477568-106.857472-85.428224-167.035904-80.082944-103.911424 9.214976-181.644288-4.037632-237.657088-40.530944-35.606528-23.19872-57.509888-52.436992-73.880576-80.169984l-143.04256 323.185664c14.81216 10.661888 50.021376 33.60256 100.248576 51.034112 89.33888 31.002624 181.70368 30.891008 274.516992-0.331776 109.860864-36.952064 187.685888-49.271808 244.923392-38.760448 42.745856 7.849984 71.673856 27.677696 96.905216 49.855488-3.212288-13.10208-8.070144-29.111296-15.184896-47.690752zM770.453504 75.309056c-32.723968 16.676864-78.841856 30.512128-133.363712 40.008704l-8.148992-46.773248c49.916928-8.69376 91.396096-20.982784 119.955456-35.53792 26.036224-13.270016 35.273728-25.575424 35.273728-32.082944 0-8.955904-17.928192-31.27296-85.777408-51.631104-64.079872-19.223552-149.699584-29.810688-241.091584-29.810688-91.390976 0-177.01376 10.587136-241.089536 29.810688-67.852288 20.358144-85.779456 42.6752-85.779456 51.631104 0 6.470656 9.1648 18.71872 34.996224 31.936512 28.352512 14.509056 69.572608 26.791936 119.206912 35.519488l-8.22272 46.761984c-54.240256-9.53856-100.097024-23.375872-132.612096-40.014848-17.928192-9.174016-32.077824-19.334144-42.05568-30.200832-12.468224-13.581312-18.791424-28.38528-18.791424-44.00128 0-15.35488 6.515712-38.28224 37.561344-60.296192 19.770368-14.022656 47.376384-26.406912 82.052096-36.809728C270.949376-116.70016 361.41568-128 457.299968-128c95.885312 0 186.351616 11.29984 254.736384 31.819776 34.676736 10.402816 62.280704 22.78912 82.05312 36.80768 31.043584 22.016 37.56032 44.94336 37.56032 60.296192 0 15.666176-6.361088 30.512128-18.904064 44.125184-10.036224 10.892288-24.265728 21.071872-42.292224 30.260224z"  horiz-adv-x="1024" />

    
    <glyph glyph-name="jibenxinxi" unicode="&#59057;" d="M209.513 5.139c-62.613 0-113.53 50.916-113.53 113.53V617.164c0 62.613 50.917 113.53 113.53 113.53h623.035c62.613 0 113.53-50.917 113.53-113.53v-498.497c0-62.613-50.917-113.53-113.53-113.53H209.513z m0 664.662c-28.898 0-52.636-23.565-52.636-52.636v-498.497c0-28.898 23.566-52.636 52.636-52.636h623.035c28.899 0 52.637 23.566 52.637 52.636V617.165c0 28.898-23.566 52.636-52.637 52.636H209.513z m581.58-477.683c-16.857 0-30.447 13.761-30.447 30.447 0 51.948-42.143 94.091-94.091 94.091s-94.092-42.143-94.092-94.091c0-16.858-13.761-30.447-30.447-30.447-16.857 0-30.446 13.761-30.446 30.447 0 53.152 27.35 102.176 72.418 130.558-19.782 20.986-30.79 48.508-30.79 77.235 0 62.613 50.916 113.53 113.529 113.53s113.529-50.917 113.529-113.53c0-28.727-11.18-56.077-30.79-77.235 44.895-28.382 72.417-77.234 72.417-130.558-0.172-16.686-13.933-30.447-30.79-30.447zM666.555 482.822c-28.899 0-52.637-23.566-52.637-52.636s23.566-52.637 52.637-52.637c29.07 0 52.636 23.566 52.636 52.637s-23.738 52.636-52.636 52.636zM434.508 482.134H248.216c-17.717 0-31.994 14.277-31.994 31.995 0 17.717 14.277 31.994 31.994 31.994h186.292c17.717 0 31.994-14.277 31.994-31.994 0-17.718-14.277-31.995-31.994-31.995zM434.508 336.094H248.216c-17.717 0-31.994 14.277-31.994 31.995s14.277 31.994 31.994 31.994h186.292c17.717 0 31.994-14.277 31.994-31.994s-14.277-31.995-31.994-31.995zM434.508 191.602H248.216c-17.717 0-31.994 14.277-31.994 31.995s14.277 31.994 31.994 31.994h186.292c17.717 0 31.994-14.277 31.994-31.994s-14.277-31.995-31.994-31.995z"  horiz-adv-x="1024" />

    
    <glyph glyph-name="xiangqing" unicode="&#59552;" d="M298.666667 554.666667h384v-42.666667H298.666667v42.666667z m0-128h298.666666v-42.666667H298.666667v42.666667z m0-128h298.666666v-42.666667H298.666667v42.666667zM170.666667 768h682.666666v-554.666667h42.666667V789.482667c0 11.52-9.557333 21.184-21.333333 21.184H149.333333c-11.626667 0-21.333333-9.557333-21.333333-21.376v-810.581334C128-33.066667 137.557333-42.666667 149.333333-42.666667h490.666667v42.666667H170.666667V768z m469.333333-576.042667c0 11.797333 9.728 21.376 21.376 21.376H896L640-42.666667V191.957333z m153.002667-21.290666H682.666667v-110.336L793.002667 170.666667z"  horiz-adv-x="1024" />

    
    <glyph glyph-name="cangku" unicode="&#58883;" d="M704.16192-64h128.448V618.56L511.52192 831.936 191.20192 618.56 191.96992-64H320.16192V320.192c0 35.2 28.864 63.808 63.36 63.808h257.28c34.944 0 63.36-28.992 63.36-63.808V-64z m160.768-64H160.16192a31.616 31.616 0 0 0-0.256 0c-13.632 0-22.4 5.888-27.264 15.872a31.488 31.488 0 0 0-4.352 18.624 82.56 82.56 0 0 0-0.192 5.248V582.464L57.24992 538.24c-18.56-11.968-41.536-17.344-52.672 2.56-11.2 19.84 0.32 34.944 18.944 46.848L492.83392 890.048a32 32 0 0 0 37.248 0l476.544-306.24c18.56-7.936 21.12-30.336 13.632-46.208-11.264-18.112-39.744-5.76-50.56 0.64-10.88 6.4-72.128 44.288-72.128 44.288v-670.72c0-23.872-9.344-39.808-31.68-39.808h-0.96zM384.16192 320v-384h256V320H384.16192z"  horiz-adv-x="1024" />

    
    <glyph glyph-name="shuru" unicode="&#58897;" d="M219.979 100.431l-88.305-14.298s-10.054-2.345-14.092 2.17c-3.118 3.487 0.802 12.268 0.802 12.268l23.161 81.538 583.427 578.208c5.639 5.638 14.744 5.638 20.378 0.009l58.196-58.194c5.611-5.611 5.611-14.729 0-20.34L219.979 100.431zM771.38 811.534c-26.768 26.726-51.072 26.726-77.799 0L97.7 219.492a27.934 27.934 0 0 1-1.941-2.156 26.92 26.92 0 0 1-9.187-13.929L65.801 71.865c-3.966-14.397 4.482-29.283 18.877-33.251a27.097 27.097 0 0 1 9.241-0.899c2.217-0.166 4.493-0.064 6.782 0.34l147.508 17.258a26.945 26.945 0 0 1 16.306 9.622 25.646 25.646 0 0 1 2.289 2.04l586.572 584.817c26.71 26.704 26.71 51.046-0.022 77.772l-81.974 81.97zM102.956 14.848h818.088c21.516 0 38.956-17.461 38.956-39 0-21.54-17.442-39-38.956-39H102.956c-21.516 0-38.956 17.46-38.956 39 0 21.539 17.441 39 38.956 39zM674.386 735.472l102.377-102.377-29.251-29.25L645.135 706.22z"  horiz-adv-x="1024" />

    
    <glyph glyph-name="modify" unicode="&#58886;" d="M863.47 479.584c-12.181 0-22.111-9.645-22.565-21.719h-0.141v-368.212c0-19.393-15.623-35.032-35.032-35.032h-592.293c-19.395 0-35.034 15.623-35.034 35.032v592.293c0 19.397 15.625 35.034 35.034 35.034h382.013c0.56-0.213 1.147-0.324 1.767-0.324 12.472 0 22.581 10.109 22.581 22.581 0 12.322-9.871 22.339-22.136 22.575v0.328h-384.225c-44.397 0-80.194-35.904-80.194-80.194v-592.294c0-44.395 35.904-80.194 80.194-80.194h592.294c44.395 0 80.194 35.904 80.194 80.194v366.238c0.082 0.359 0.125 0.731 0.125 1.114-0.001 12.47-10.112 22.58-22.582 22.58zM351.003 343.965c-0.51-0.649-1.022-1.333-1.253-2.154l-39.48-144.319c-2.303-8.402 0.057-17.457 6.295-23.838 4.667-4.547 10.815-7.044 17.363-7.044 0.026-0 0.056-0 0.086-0 2.267 0 4.463 0.3 6.552 0.863s143.888 38.841 144.062 38.841c1.652 0 3.274 0.601 4.498 1.848l384.315 383.117c11.416 11.395 17.678 26.919 17.678 43.809 0 19.139-8.142 38.269-22.401 52.446l-36.294 36.247c-14.236 14.212-33.449 22.345-52.637 22.345-16.935 0-32.506-6.24-43.95-17.61-0.001 0-384.55-384.124-384.835-384.551zM418.206 347.969l281.079 280.314 71.624-75.453-282.065-281.18-70.638 76.319zM385.962 316.321l0.244-0.264-2.743-2.737-1.405-1.343c32.996 36.053 59.266 78.894 76.422 126.109zM388.767 313.289l63.518-68.627-88.907-24.177 25.389 92.804zM767.727 696.54c2.806 2.786 6.895 4.426 12.060 4.426 7.096 0 14.876-3.3 20.726-9.143l36.294-36.243c5.888-5.853 9.153-13.502 9.153-20.491 0-5.055-1.609-9.040-4.422-11.849l-38.639-38.518-71.63 75.461 36.458 36.357z"  horiz-adv-x="1024" />

    
    <glyph glyph-name="tupian" unicode="&#58967;" d="M99.55567 810.68077A85.276421 85.276421 0 0 0 184.960091 895.999858H686.933285L938.666548 639.999929v-683.605144A84.337754 84.337754 0 0 0 854.172349-127.999858H184.049869A84.465754 84.465754 0 0 0 99.55567-43.562548V810.68077zM938.666548 639.999929H772.152817a85.33331 85.33331 0 0 0-85.219532 85.247976V895.999858L938.666548 639.999929zM679.509287 467.327977l134.954629-271.07548H250.595628c68.394648 62.677316 212.636385 196.76439 212.636386 196.764389l57.25865-105.415081 159.018623 179.726172zM333.795605 422.869323c-29.823992 0-53.987541 25.656882-53.987541 57.343984 0 31.67288 24.163549 57.372429 53.987541 57.372428 29.752881 0 53.930652-25.713771 53.930652-57.372428 0.014222-31.687102-24.163549-57.343984-53.930652-57.343984z"  horiz-adv-x="1024" />

    
    <glyph glyph-name="yuangong1" unicode="&#58891;" d="M512.168 403.534c111.471 0 202.157 96.068 202.157 214.156 0 118.107-90.686 214.187-202.157 214.187-111.47 0-202.155-96.08-202.155-214.187 0-118.088 90.686-214.156 202.155-214.156z m0 372.415c82.349 0 149.376-70.984 149.376-158.26 0-87.245-67.027-158.239-149.376-158.239-82.347 0-149.375 70.994-149.375 158.24 0 87.276 67.028 158.259 149.375 158.259zM860.42 181.808c-50.554 92.568-131.363 161.193-227.554 193.251-12.446 4.17-25.945-1.983-31.652-14.45-20.198-44.119-50.797-81.154-89.047-107.99-38.248 26.837-68.849 63.871-89.046 107.99-5.707 12.466-19.186 18.618-31.652 14.45-96.19-32.058-177-100.683-227.553-193.251-4.736-8.661-4.736-19.347 0-28.03 71.763-131.384 205.21-213.022 348.251-213.022 143.041 0 276.488 81.638 348.252 213.023 4.737 8.682 4.737 19.368 0 28.029zM637.602 314.124c14.571-5.93 28.636-12.912 42.217-20.744-21.413-39.301-51.689-86.01-90.078-122.094-4.33 3.987-8.804 8.277-13.419 12.669-9.45 9.046-19.082 18.194-29.1 26.451 36.911 27.238 67.714 62.412 90.38 103.718z m-250.867 0c22.666-41.305 53.467-76.48 90.381-103.719-10.017-8.256-19.65-17.405-29.1-26.451-4.615-4.392-9.087-8.68-13.418-12.669-38.392 36.084-68.667 82.793-90.078 122.094 13.578 7.833 27.643 14.814 42.215 20.745zM529.755-2.7V120.57c0 10.3-7.872 18.639-17.588 18.639-9.713 0-17.586-8.338-17.586-18.64V-2.7c-112.42 6.053-216.14 69.781-276.955 170.505 25.48 42.256 58.488 78.219 96.878 106.106 25.035-45.818 61.605-101.108 108.92-141.462 6.374-5.424 15.4-5.484 21.836-0.182 8.723 7.184 17.264 15.36 26.31 24.001 13.317 12.73 26.997 25.803 40.596 34.87 13.58-9.067 27.282-22.14 40.597-34.87 9.047-8.64 17.587-16.818 26.31-24.001 3.157-2.61 6.982-3.927 10.807-3.927 3.906 0 7.792 1.377 11.03 4.109 47.315 40.355 83.885 95.644 108.92 141.462 38.39-27.889 71.397-63.85 96.877-106.106-60.812-100.723-164.53-164.452-276.952-170.504z"  horiz-adv-x="1024" />

    
    <glyph glyph-name="kucun1" unicode="&#58881;" d="M456 380.8c-4.8 0-8 1.6-11.2 3.2L72 596.8c-11.2 6.4-16 20.8-9.6 32s20.8 16 32 9.6l372.8-214.4c11.2-6.4 16-20.8 9.6-32-3.2-8-11.2-11.2-20.8-11.2zM457.6 380.8c-8 0-16 4.8-20.8 12.8-6.4 11.2-1.6 25.6 9.6 32L832 641.6c11.2 6.4 25.6 1.6 32-9.6s1.6-25.6-9.6-32L468.8 384c-3.2-3.2-8-3.2-11.2-3.2zM841.6 596.8c-3.2 0-8 1.6-11.2 3.2L448 792c-11.2 6.4-16 20.8-11.2 32 6.4 11.2 20.8 16 32 11.2l382.4-192c11.2-6.4 16-20.8 11.2-32-3.2-9.6-11.2-14.4-20.8-14.4zM89.6 598.4c-8 0-17.6 4.8-20.8 12.8-6.4 11.2-1.6 25.6 11.2 32L448 833.6c11.2 6.4 25.6 1.6 32-11.2s1.6-25.6-11.2-32l-368-188.8c-3.2-1.6-6.4-3.2-11.2-3.2zM459.2-67.2c-4.8 0-8 1.6-12.8 3.2L76.8 161.6c-11.2 6.4-14.4 22.4-8 33.6 6.4 11.2 22.4 14.4 33.6 8l369.6-225.6c11.2-6.4 14.4-22.4 8-33.6-4.8-8-12.8-11.2-20.8-11.2zM465.6-67.2c-8 0-16 4.8-20.8 12.8-6.4 11.2-1.6 25.6 9.6 32l129.6 72c11.2 6.4 25.6 1.6 32-9.6 6.4-11.2 1.6-25.6-9.6-32L476.8-64c-3.2-3.2-8-3.2-11.2-3.2zM843.2 481.6c-12.8 0-24 11.2-24 24v110.4c0 12.8 11.2 24 24 24s24-11.2 24-24v-110.4c0-12.8-11.2-24-24-24zM465.6-67.2c-12.8 0-24 11.2-24 24V400c0 12.8 11.2 24 24 24s24-11.2 24-24v-443.2c0-12.8-11.2-24-24-24zM83.2 163.2c-12.8 0-24 11.2-24 24V604.8c0 12.8 11.2 24 24 24s24-11.2 24-24v-417.6c0-12.8-11.2-24-24-24zM374.4 288c-4.8 0-8 1.6-12.8 3.2l-179.2 104c-11.2 6.4-16 20.8-8 33.6 6.4 11.2 20.8 16 33.6 8l179.2-104c11.2-6.4 16-20.8 8-33.6-4.8-8-12.8-11.2-20.8-11.2zM812.8 46.4c-11.2 0-20.8 4.8-27.2 11.2-8 8-22.4 19.2-30.4 19.2s-24-11.2-30.4-19.2c-6.4-8-17.6-11.2-27.2-11.2-4.8 0-9.6 1.6-14.4 3.2h-1.6l-48 27.2h-1.6c-12.8 9.6-19.2 27.2-11.2 43.2 1.6 1.6 3.2 8 3.2 14.4 0 20.8-16 36.8-36.8 36.8h-1.6c-14.4 0-25.6 11.2-28.8 28.8 0 0-4.8 22.4-4.8 40s4.8 40 4.8 40c3.2 16 14.4 28.8 28.8 28.8h1.6c20.8 0 36.8 16 36.8 36.8 0 4.8-3.2 11.2-3.2 14.4-6.4 14.4-1.6 33.6 12.8 43.2l1.6 1.6 49.6 27.2h1.6c4.8 1.6 9.6 3.2 14.4 3.2 9.6 0 20.8-4.8 27.2-11.2 8-8 22.4-17.6 30.4-17.6s22.4 9.6 30.4 17.6c6.4 6.4 17.6 11.2 27.2 11.2 4.8 0 9.6-1.6 14.4-3.2h1.6l48-27.2h1.6c12.8-9.6 19.2-27.2 11.2-43.2-1.6-1.6-3.2-8-3.2-14.4 0-20.8 16-36.8 36.8-36.8h1.6c14.4 0 25.6-11.2 28.8-28.8 0 0 4.8-22.4 4.8-40s-4.8-40-4.8-40c-3.2-17.6-14.4-28.8-28.8-28.8h-1.6c-20.8 0-36.8-16-36.8-36.8 0-4.8 3.2-11.2 3.2-14.4 6.4-14.4 1.6-33.6-12.8-43.2l-1.6-1.6-49.6-27.2h-1.6c-4.8-1.6-9.6-3.2-14.4-3.2z m-59.2 80c16 0 32-6.4 48-17.6 4.8-3.2 9.6-8 12.8-9.6l28.8 16c-1.6 6.4-3.2 14.4-3.2 22.4 0 41.6 30.4 76.8 70.4 83.2 1.6 6.4 1.6 14.4 1.6 20.8s-1.6 14.4-1.6 20.8c-40 6.4-70.4 41.6-70.4 84.8 0 8 1.6 16 3.2 22.4l-28.8 16c-3.2-3.2-8-6.4-12.8-9.6-16-11.2-32-17.6-46.4-17.6-14.4 0-30.4 6.4-46.4 17.6-4.8 3.2-9.6 6.4-12.8 9.6l-30.4-16c1.6-6.4 3.2-14.4 3.2-22.4 0-41.6-30.4-76.8-70.4-84.8-1.6-6.4-1.6-16-1.6-20.8 0-6.4 1.6-14.4 1.6-20.8 40-6.4 70.4-41.6 70.4-83.2 0-8-1.6-16-3.2-22.4l27.2-14.4c3.2 3.2 8 6.4 12.8 9.6 17.6 9.6 33.6 16 48 16z m0 35.2c-43.2 0-80 35.2-80 80 0 43.2 35.2 80 80 80 43.2 0 80-35.2 80-80s-36.8-80-80-80z m0 110.4c-17.6 0-30.4-14.4-30.4-30.4s14.4-30.4 30.4-30.4S784 224 784 240s-12.8 32-30.4 32z"  horiz-adv-x="1024" />

    
    <glyph glyph-name="ln-" unicode="&#59172;" d="M898.196945 279.775418c-31.501964-18.878836-126.277818-99.988945-160.311854-104.271127-33.698909-4.291491-124.890764 2.383127-189.812364 8.527127-73.439418 6.888727-44.795345 36.603345-33.1776 39.768437 11.627055 3.202327 152.2688 10.798545 199.2704 16.197818 42.300509 4.877964 36.193745 46.545455-11.506036 48.221091-47.625309 1.6384-263.614836 16.272291-336.197818 11.394327-72.657455-4.877964-178.743855-101.915927-178.743855-101.915927l3.947055-15.425164 154.689163-137.374255 20.666182 1.6384s37.943855 21.820509 69.492364 28.37411c31.5392 6.590836 205.861236-12.585891 266.072436-3.835346 60.2112 8.750545 215.319273 138.565818 249.353309 166.828218 16.532945 13.861236 28.374109 33.596509 24.920437 38.921309-16.505018 25.255564-58.246982 15.238982-78.661819 2.950982M156.504436 171.296582c-14.224291 12.921018-30.273164 9.867636-39.991854 2.085236-9.755927-7.745164-50.269091-39.247127-61.8496-47.215709-17.910691-12.325236-2.048-32.926255 8.192-42.5984 10.165527-9.644218 119.873164-111.346036 136.070982-127.357673 16.235055-15.983709 32.916945-14.270836 45.130472-3.984291 12.176291 10.24 40.438691 34.518109 58.535564 47.21571 18.096873 12.660364 16.495709 27.145309 3.872582 38.614109-12.548655 11.506036-135.661382 120.357236-149.960146 133.241018M452.040145 715.776h312.552728v-55.854545H452.040145v55.854545z m-86.583854-27.936582c0 7.298327 2.978909 14.596655 8.192 19.698037a28.001745 28.001745 0 0 0 19.735273 8.229236c7.298327 0 14.596655-3.016145 19.698036-8.229236 5.213091-5.138618 8.229236-12.399709 8.229236-19.698037a27.927273 27.927273 0 0 0-47.662545-19.772509 28.281018 28.281018 0 0 0-8.192 19.772509m86.509382-101.515636h312.655127v-55.854546H451.965673v55.854546z m-86.509382-27.927273c0 7.335564 2.978909 14.633891 8.192 19.698036a27.759709 27.759709 0 0 0 39.433309 0c5.213091-5.101382 8.229236-12.362473 8.229236-19.698036s-3.016145-14.633891-8.192-19.809745a28.020364 28.020364 0 0 0-39.470545 0.037236 28.141382 28.141382 0 0 0-8.192 19.772509m86.509382-101.515636h312.655127v-55.854546H451.965673v55.854546z m-86.509382-27.927273c0 7.298327 2.978909 14.596655 8.192 19.698036a28.001745 28.001745 0 0 0 19.735273 8.229237c7.298327 0 14.596655-3.016145 19.698036-8.229237 5.213091-5.138618 8.229236-12.399709 8.229236-19.698036 0-7.335564-3.016145-14.633891-8.229236-19.772509a28.066909 28.066909 0 0 0-19.698036-8.154764 28.020364 28.020364 0 0 0-19.735273 8.154764 28.281018 28.281018 0 0 0-8.192 19.772509M788.452073 823.649745H341.587782a65.247418 65.247418 0 0 1-65.172946-65.172945v-388.552145a27.927273 27.927273 0 0 1 55.854546 0v388.561454c0 5.064145 4.244945 9.309091 9.309091 9.309091h446.8736c5.064145 0 9.309091-4.244945 9.309091-9.309091v-388.552145a27.927273 27.927273 0 0 1 55.854545 0V758.486109c0.009309 35.933091-29.221236 65.163636-65.163636 65.163636"  horiz-adv-x="1024" />

    
    <glyph glyph-name="dingyue" unicode="&#58880;" d="M512 896c282.761 0 512-229.239 512-512s-229.239-512-512-512-512 229.239-512 512 229.239 512 512 512zM333.703 125.743c44.171 0 79.96 35.788 79.96 79.96s-35.788 79.96-79.96 79.96-79.96-35.788-79.96-79.96 35.788-79.96 79.96-79.96zM605.501 157.662c0 176.685-143.154 319.839-319.839 319.839-17.733 0-31.919-14.186-31.919-31.919s14.186-31.919 31.919-31.919c141.219 0 256-114.458 256-256 0-17.733 14.186-31.919 31.919-31.919s31.919 14.186 31.919 31.919zM765.421 157.662c0 265.028-214.73 479.758-479.758 479.758-17.733 0-31.919-14.186-31.919-31.919s14.186-31.919 31.919-31.919c229.562 0 415.919-186.035 415.919-415.919 0-17.733 14.186-31.919 31.919-31.919s31.919 14.186 31.919 31.919z"  horiz-adv-x="1024" />

    
    <glyph glyph-name="cangweiguanli" unicode="&#58938;" d="M308.758 471.073h59.453v74.213h116.379v-270.287h-292.634v270.287h116.377c0.422-22.348 0.422-46.805 0.422-74.213zM656.208 471.073h59.454v74.213h116.379v-270.287h-292.634v270.287h116.378c0.422-22.348 0.422-46.805 0.422-74.213zM308.758 158.62h59.454v74.213h116.379v-270.287h-292.634v270.287h116.377c0.422-24.878 0.422-49.335 0.422-74.213zM656.209 158.62h59.454v74.213h116.379v-270.287h-292.634v270.287h116.378c0.422-24.878 0.422-49.335 0.422-74.213zM512.422 805.875l-419.135-188.484v-94.452l419.135 188.903 419.134-188.905v94.453z"  horiz-adv-x="1024" />

    
    <glyph glyph-name="jiahao" unicode="&#59191;" d="M853.333333 341.333333H554.666667v-298.666666H469.333333V341.333333H170.666667V426.666667h298.666666V725.333333h85.333334v-298.666666h298.666666v-85.333334z"  horiz-adv-x="1024" />

    
    <glyph glyph-name="kehu" unicode="&#58882;" d="M265.826 627.924c0-135.706 110.054-245.622 245.622-245.622s245.622 110.054 245.622 245.622c0.138 135.568-109.916 245.622-245.622 245.622s-245.622-109.916-245.622-245.622zM589.507 376.233l-77.921-77.921-78.059 77.921c-234.175-37.513-314.578-240.382-314.578-485.177h786.515c0 244.795-81.782 447.664-315.957 485.177M511.449-38.745l-84.127 84.127 84.127 252.517 84.127-252.656-84.127-83.988z"  horiz-adv-x="1024" />

    
    <glyph glyph-name="xiaoshou" unicode="&#58884;" d="M679.127 756.428L783.29 652.265 576.795 445.858 406.587 573.182c-0.467 0.378-1.107 0.494-1.6 0.758-1.775 1.193-3.728 1.947-5.733 2.765-1.774 0.608-3.317 1.396-5.15 1.771-1.98 0.351-3.87 0.29-5.907 0.205-1.949 0.086-3.781 0.174-5.76-0.175-1.775-0.348-3.434-1.194-5.123-1.835-2.033-0.755-3.986-1.539-5.905-2.792-0.495-0.32-1.047-0.29-1.453-0.669l-265.56-197.85c-13.559-10.125-16.412-29.243-6.229-42.83a30.521 30.521 0 0 1 26.13-12.278c5.849 0.261 11.638 2.298 16.7 5.963L388.142 510.45l173.148-129.533c1.6-1.282 3.432-1.863 5.237-2.678 1.136-0.466 2.182-1.221 3.374-1.6a29.117 29.117 0 0 1 11.38-1.774h0.028c3.985 0.233 7.912 1.337 11.579 3.17 1.25 0.555 2.27 1.572 3.403 2.327 1.659 1.107 3.521 1.923 5.005 3.434l225.29 225.174 105.359-105.357V756.428H679.127zM157.29 41.367c0-16.469 13.325-29.795 29.799-29.795h29.79c16.468 0 29.795 13.326 29.795 29.795V251.235l-89.384-66.628v-143.24zM601.938 230.811c-1.107-0.756-2.125-1.774-3.377-2.327-3.695-1.835-7.623-2.97-11.607-3.174l-0.03-0.028a29.701 29.701 0 0 0-11.376 1.804c-0.41 0.119-0.757 0.351-1.136 0.554v-186.272c0-16.469 13.324-29.795 29.795-29.795h29.791c16.471 0 29.797 13.326 29.797 29.795v249.7l-56.856-56.825c-1.483-1.513-3.315-2.356-5.001-3.432zM782.971 41.367c0-16.469 13.326-29.795 29.796-29.795h29.792c16.47 0 29.795 13.326 29.795 29.795V499.512l-89.384-89.353v-368.792zM365.852 340.065v-298.699c0-16.469 13.324-29.795 29.795-29.795h29.792c16.47 0 29.794 13.326 29.794 29.795v273.56l-61.42 45.972-27.961-20.833z"  horiz-adv-x="1024" />

    
    <glyph glyph-name="kehu1" unicode="&#58893;" d="M648.533 413.867c51.2 38.4 85.334 102.4 85.334 170.666 0 119.467-98.134 217.6-217.6 217.6-119.467 0-217.6-98.133-217.6-217.6 0-68.266 34.133-132.266 85.333-170.666C247.467 358.4 153.6 230.4 153.6 76.8v-72.533c0-21.334 17.067-38.4 38.4-38.4h657.067c21.333 0 38.4 17.066 38.4 38.4V76.8C878.933 226.133 780.8 358.4 648.533 413.867z m-281.6 170.666c0 81.067 64 145.067 145.067 145.067 81.067 0 145.067-64 145.067-145.067 0-81.066-64-145.066-145.067-145.066-81.067 0-145.067 64-145.067 145.066zM806.4 38.4H217.6v38.4c0 162.133 132.267 290.133 294.4 290.133 162.133 0 294.4-132.266 294.4-290.133v-38.4zM238.933 379.733h8.534c17.066 4.267 25.6 17.067 25.6 34.134 0 17.066-8.534 29.866-25.6 34.133-38.4 17.067-64 55.467-64 98.133 0 51.2 29.866 89.6 76.8 106.667 8.533 25.6 21.333 46.933 34.133 64 0 4.267 4.267 8.533 8.533 12.8H294.4c-102.4 0-183.467-81.067-183.467-183.467 0-46.933 17.067-89.6 46.934-123.733C64 375.467 0 277.333 0 166.4v-55.467c0-21.333 17.067-38.4 38.4-38.4h64c0 25.6 4.267 51.2 8.533 72.534h-38.4V166.4c0 102.4 68.267 187.733 166.4 213.333z m627.2 46.934C896 460.8 913.067 503.467 913.067 550.4c0 98.133-81.067 183.467-183.467 183.467h-8.533c4.266-8.534 8.533-12.8 8.533-17.067 12.8-21.333 25.6-42.667 34.133-64 42.667-12.8 76.8-55.467 76.8-102.4 0-42.667-25.6-81.067-64-98.133-12.8-4.267-25.6-17.067-25.6-34.134 0-17.066 12.8-29.866 25.6-34.133h8.534c98.133-25.6 166.4-110.933 166.4-209.067V153.6h-38.4c4.266-25.6 8.533-46.933 8.533-72.533h64c21.333 0 38.4 17.066 38.4 38.4v55.466c0 102.4-64 200.534-157.867 251.734z m0 0"  horiz-adv-x="1024" />

    
    <glyph glyph-name="cloud-purchase" unicode="&#58982;" d="M892.608 592.576a24.512 24.512 0 0 1-19.2 9.344H234.304l-23.68 104.256c-0.192 1.216-0.96 2.112-1.344 3.136-0.704 1.856-1.28 3.648-2.368 5.248-1.152 1.664-2.688 2.88-4.224 4.16-0.768 0.768-1.344 1.728-2.304 2.368l-42.752 28.48c0.064 1.408 0.832 2.624 0.832 4.032a59.584 59.584 0 0 1-59.52 59.52 59.52 59.52 0 0 1 0-119.04 58.368 58.368 0 0 1 35.136 12.8l31.36-20.928 122.112-538.624c11.712-48.448 59.776-86.336 109.568-86.848a77.184 77.184 0 0 1 71.488-105.728 77.184 77.184 0 0 1 71.552 105.6h121.024a75.136 75.136 0 0 1-5.696-28.48 77.248 77.248 0 0 1 154.304 0c0 42.56-34.56 77.12-77.056 77.12H398.208c-27.328 0-56.96 23.296-63.36 49.472l-10.112 44.544 481.728 68.736a24.32 24.32 0 0 1 20.096 18.176l70.4 281.664a24.32 24.32 0 0 1-4.352 20.992z m-395.52-560.64a28.48 28.48 0 1 0-56.96 0 28.48 28.48 0 0 0 56.96 0z m235.584-28.48a28.544 28.544 0 1 0-0.128 57.088 28.544 28.544 0 0 0 0.128-57.088zM88 753.664c0 6.016 4.928 10.88 10.88 10.88s10.88-4.928 10.88-10.88c0.064-12.032-21.76-11.968-21.76 0z m695.488-435.968l-469.504-67.008-68.672 302.656h596.992l-58.816-235.648z"  horiz-adv-x="1024" />

    
    <glyph glyph-name="che1" unicode="&#58909;" d="M950.221 419.447l-112.626 127.591c-21.105 23.887-62.644 42.594-94.493 42.594h-93.247v76.747c0 37.318-30.411 67.729-67.729 67.729h-477.266c-37.318 0-67.729-30.411-67.729-67.729v-351.402c0-37.318 30.411-67.729 67.729-67.729h10.265v-100.921c0-37.318 30.411-67.729 67.729-67.729h65.331c4.893-58.903 54.394-105.43 114.544-105.43s109.651 46.432 114.544 105.43h160.112c4.893-58.903 54.394-105.43 114.639-105.43 60.15 0 109.651 46.432 114.544 105.43h52.667c37.318 0 67.729 30.411 67.729 67.729v156.37c-2.974 75.115-16.212 93.439-36.742 116.751zM104.861 286.964c-15.35 0-27.917 12.567-27.917 27.917v351.402c0 15.35 12.472 27.917 27.917 27.917h477.17c15.35 0 27.917-12.472 27.917-27.917v-351.402c0-15.35-12.567-27.917-27.917-27.917h-477.17zM362.824 12.788c-41.443 0-75.115 33.769-75.115 75.211s33.672 75.115 75.115 75.115c41.443 0 75.211-33.672 75.211-75.115-0.096-41.443-33.769-75.211-75.211-75.211zM751.928 12.788c-41.443 0-75.211 33.769-75.211 75.211s33.769 75.115 75.211 75.115c41.443 0 75.115-33.672 75.115-75.115 0.096-41.443-33.672-75.211-75.115-75.211zM947.055 264.323v-118.19c0-15.35-12.567-27.917-27.917-27.917h-56.216c-13.335 48.734-58.040 84.804-110.899 84.804-52.955 0-97.659-35.975-110.994-84.804h-167.307c-13.335 48.83-57.943 84.804-110.899 84.804-52.955 0-97.659-35.975-110.899-84.804h-68.88c-15.35 0-27.917 12.567-27.917 27.917v100.921h427.093c37.318 0 67.729 30.411 67.729 67.729v234.939h93.247c20.626 0 50.844-13.623 64.563-29.067l123.945-139.678c10.553-14.294 16.117-40.484 15.35-116.654zM799.991 480.172c-6.235 10.745-19.858 18.611-32.33 18.611h-45.76c-15.062 0-27.341-12.279-27.341-27.341v-194.935c0-15.062 12.184-27.341 27.341-27.341h118.861c15.062 0 27.245 12.184 27.245 27.341v69.456c0 9.881-3.742 23.791-8.73 32.33l-59.287 101.881zM840.666 276.603h-118.765v194.84h45.76c2.686 0 7.387-2.783 8.73-4.988l59.382-101.784c2.59-4.413 4.988-13.526 4.988-18.611l-0.096-69.456z"  horiz-adv-x="1024" />

    
    <glyph glyph-name="ruku" unicode="&#58889;" d="M785.187279 20.353357h-542.756184c-50.657244 0-90.459364 39.80212-90.459364 90.459364V657.187279c0 50.657244 39.80212 90.459364 90.459364 90.459364h542.756184c50.657244 0 90.459364-39.80212 90.459364-90.459364v-546.374558c0-50.657244-39.80212-90.459364-90.459364-90.459364z m43.420495 636.833922c0 25.328622-21.710247 47.038869-47.038869 47.038869h-542.756184c-21.710247-3.618375-43.420495-21.710247-43.420495-47.038869v-546.374558c0-25.328622 21.710247-47.038869 47.038869-47.038869h542.756184c25.328622 0 47.038869 21.710247 47.038869 47.038869V657.187279h-3.618374z m-112.169611-546.374558H307.561837c-10.855124 0-21.710247 10.855124-21.710247 21.710247s10.855124 21.710247 21.710247 21.710248h408.876326c10.855124 0 21.710247-10.855124 21.710247-21.710248s-10.855124-21.710247-21.710247-21.710247zM528.282686 208.508834c-3.618375-3.618375-10.855124-7.236749-18.091873-7.236749s-10.855124 0-18.091873 7.236749l-112.169611 137.498233c-7.236749 7.236749-7.236749 21.710247 0 32.565371 7.236749 7.236749 21.710247 7.236749 32.565371 0l75.985865-90.459364V631.858657c0 10.855124 10.855124 21.710247 21.710248 21.710248s21.710247-10.855124 21.710247-21.710248v-347.363957l72.367491 90.459364c7.236749 7.236749 21.710247 7.236749 32.565371 0 7.236749-7.236749 7.236749-21.710247 0-32.565371l-108.551236-133.879859z"  horiz-adv-x="1024" />

    
    <glyph glyph-name="shenhe" unicode="&#58936;" d="M413.281 65.954H214.018c-15.048 0-27.359 12.311-27.359 27.359V749.924c0 15.048 12.311 27.359 27.359 27.359h519.817c15.046 0 27.359-12.311 27.359-27.359v-232.55c0-15.048 12.311-27.359 27.359-27.359 15.046 0 27.359 12.311 27.359 27.359v232.55c0 45.141-36.935 82.076-82.076 82.076H214.018c-45.143 0-82.077-36.935-82.077-82.076v-656.611c0-45.142 36.934-82.076 82.077-82.076h199.263c15.048 0 27.359 12.311 27.359 27.359-0.001 15.047-12.312 27.358-27.359 27.358zM671.821 681.527H261.439c-15.048 0-27.359-12.311-27.359-27.359 0-15.048 12.311-27.359 27.359-27.359h410.382c15.047 0 27.359 12.311 27.359 27.359 0 15.047-12.312 27.359-27.359 27.359z m0-136.794H261.439c-15.048 0-27.359-12.311-27.359-27.359 0-15.048 12.311-27.359 27.359-27.359h410.382c15.047 0 27.359 12.311 27.359 27.359 0 15.048-12.312 27.359-27.359 27.359zM512.228 407.939H261.439c-15.048 0-27.359-12.311-27.359-27.359s12.311-27.359 27.359-27.359h250.789c15.048 0 27.359 12.311 27.359 27.359s-12.312 27.359-27.359 27.359z m333.321-421.781H579.257c-13.679 0-25.079-11.399-25.079-25.079S565.577-64 579.257-64H845.55c13.68 0 24.622 10.944 25.079 25.535-0.001 13.679-11.4 24.623-25.08 24.623z m-6.839 196.527h-52.438c-6.84 15.959 1.823 46.053 23.711 81.62l0.455 0.912v0.456c0.456 0.455 0.913 1.368 0.913 1.368 9.575 18.239 19.151 41.038 19.151 70.677 0 66.117-51.982 118.555-118.555 119.01h-0.912c-66.573-0.455-118.099-52.893-118.099-119.01 0-29.639 9.576-51.982 19.151-70.221 0.456-1.368 0.913-2.28 1.368-2.735l0.456-0.456c21.887-35.567 30.55-65.205 23.711-81.62h-52.438c-29.639 0-53.349-24.624-53.349-55.174v-88.004c0-12.311 10.031-22.343 22.343-22.343h315.994c12.311 0 21.887 10.032 21.887 21.887v88.46c0 30.55-23.711 55.173-53.349 55.173z m4.103-114.907H581.081v59.734c0 2.736 1.823 4.56 4.103 4.56h74.325l3.192 2.736c38.302 31.462 36.022 86.636-6.383 155.488-8.664 16.871-13.679 30.095-13.679 47.423 0 38.758 30.094 68.397 69.309 68.852 39.67-0.455 69.309-30.094 69.309-68.852 0-17.784-5.016-31.007-13.679-47.423-42.406-68.852-44.23-124.026-6.383-155.488l3.192-2.736h73.868c2.28 0 4.103-1.824 4.103-4.56v-59.734h0.455z m-404.91 203.367H261.439c-15.048 0-27.359-12.311-27.359-27.359s12.311-27.359 27.359-27.359h176.464c15.048 0 27.359 12.311 27.359 27.359s-12.311 27.359-27.359 27.359z"  horiz-adv-x="1024" />

    


  </font>
</defs>
</svg>
